<mxfile host="app.diagrams.net" modified="2023-10-02T20:44:16.303Z" agent="Mozilla/5.0 (Macintosh; Intel Mac OS X 10_15_7) AppleWebKit/537.36 (KHTML, like Gecko) Chrome/117.0.0.0 Safari/537.36" etag="ia9db2Ms0ojIHiL4uMyd" version="21.7.2" type="device">
  <diagram id="3tisYIIPtr9SrxWCXuw6" name="Page-1">
    <mxGraphModel dx="372" dy="627" grid="0" gridSize="10" guides="1" tooltips="1" connect="1" arrows="1" fold="1" page="1" pageScale="1" pageWidth="827" pageHeight="1169" math="0" shadow="0">
      <root>
        <mxCell id="0" />
        <mxCell id="1" parent="0" />
        <mxCell id="sbmTU8m0kKVAPtFWeIud-19" value="2 sec voorbij" style="endArrow=classic;html=1;curved=1;exitX=1;exitY=0.5;exitDx=0;exitDy=0;entryX=1;entryY=0.5;entryDx=0;entryDy=0;" parent="1" source="sbmTU8m0kKVAPtFWeIud-9" edge="1">
          <mxGeometry x="0.0175" y="7" width="50" height="50" relative="1" as="geometry">
            <mxPoint x="310" y="660" as="sourcePoint" />
            <mxPoint x="580" y="230" as="targetPoint" />
            <Array as="points">
              <mxPoint x="920" y="830" />
              <mxPoint x="790" y="240" />
            </Array>
            <mxPoint as="offset" />
          </mxGeometry>
        </mxCell>
        <mxCell id="sbmTU8m0kKVAPtFWeIud-20" value="start" style="endArrow=classic;html=1;curved=1;entryX=0;entryY=0;entryDx=0;entryDy=0;" parent="1" edge="1">
          <mxGeometry width="50" height="50" relative="1" as="geometry">
            <mxPoint x="922.43" y="569" as="sourcePoint" />
            <mxPoint x="1020.0035931288072" y="600.7157287525381" as="targetPoint" />
          </mxGeometry>
        </mxCell>
        <mxCell id="cmVPZQMfzSkM2TJ736y8-1" value="1 sec voorbij" style="edgeStyle=none;html=1;labelBackgroundColor=none;startArrow=none;startFill=0;startSize=5;endArrow=classicThin;endFill=1;endSize=15;jettySize=auto;orthogonalLoop=1;strokeColor=#000000;strokeWidth=1;fontFamily=Verdana;fontSize=12;exitX=1;exitY=1;exitDx=0;exitDy=0;curved=1;entryX=0;entryY=1;entryDx=0;entryDy=0;" edge="1" parent="1" source="cmVPZQMfzSkM2TJ736y8-5" target="cmVPZQMfzSkM2TJ736y8-4">
          <mxGeometry x="-0.074" y="-3" relative="1" as="geometry">
            <mxPoint x="1088.0257166150784" y="549.6224301736751" as="sourcePoint" />
            <Array as="points">
              <mxPoint x="1180" y="650" />
            </Array>
            <mxPoint as="offset" />
          </mxGeometry>
        </mxCell>
        <mxCell id="cmVPZQMfzSkM2TJ736y8-3" value="&lt;span&gt;EXCITING&lt;/span&gt;" style="ellipse;whiteSpace=wrap;html=1;rounded=0;shadow=1;comic=0;labelBackgroundColor=none;strokeWidth=1;fontFamily=Verdana;fontSize=12;align=center;" vertex="1" parent="1">
          <mxGeometry x="1140" y="470" width="75" height="50" as="geometry" />
        </mxCell>
        <mxCell id="cmVPZQMfzSkM2TJ736y8-4" value="&lt;span&gt;KAMIKAZE&lt;/span&gt;" style="ellipse;whiteSpace=wrap;html=1;rounded=0;shadow=1;comic=0;labelBackgroundColor=none;strokeWidth=1;fontFamily=Verdana;fontSize=12;align=center;" vertex="1" parent="1">
          <mxGeometry x="1260" y="580" width="75" height="50" as="geometry" />
        </mxCell>
        <mxCell id="cmVPZQMfzSkM2TJ736y8-5" value="&lt;span&gt;BORING&lt;/span&gt;" style="ellipse;whiteSpace=wrap;html=1;rounded=0;shadow=1;comic=0;labelBackgroundColor=none;strokeWidth=1;fontFamily=Verdana;fontSize=12;align=center;" vertex="1" parent="1">
          <mxGeometry x="1020" y="580" width="75" height="50" as="geometry" />
        </mxCell>
        <mxCell id="cmVPZQMfzSkM2TJ736y8-7" value="knop ingedrukt" style="edgeStyle=none;html=1;labelBackgroundColor=none;startArrow=none;startFill=0;startSize=5;endArrow=classicThin;endFill=1;endSize=15;jettySize=auto;orthogonalLoop=1;strokeColor=#000000;strokeWidth=1;fontFamily=Verdana;fontSize=12;exitX=0.5;exitY=0;exitDx=0;exitDy=0;curved=1;entryX=1;entryY=0.5;entryDx=0;entryDy=0;" edge="1" parent="1" source="cmVPZQMfzSkM2TJ736y8-4" target="cmVPZQMfzSkM2TJ736y8-3">
          <mxGeometry x="-0.4195" y="-38" relative="1" as="geometry">
            <mxPoint x="1094" y="633" as="sourcePoint" />
            <Array as="points">
              <mxPoint x="1290" y="530" />
            </Array>
            <mxPoint x="1281" y="633" as="targetPoint" />
            <mxPoint as="offset" />
          </mxGeometry>
        </mxCell>
        <mxCell id="cmVPZQMfzSkM2TJ736y8-8" value="1 sec voorbij" style="edgeStyle=none;html=1;labelBackgroundColor=none;startArrow=none;startFill=0;startSize=5;endArrow=classicThin;endFill=1;endSize=15;jettySize=auto;orthogonalLoop=1;strokeColor=#000000;strokeWidth=1;fontFamily=Verdana;fontSize=12;curved=1;entryX=1;entryY=0;entryDx=0;entryDy=0;" edge="1" parent="1">
          <mxGeometry x="0.1145" y="18" relative="1" as="geometry">
            <mxPoint x="1270" y="597" as="sourcePoint" />
            <Array as="points">
              <mxPoint x="1190" y="580" />
            </Array>
            <mxPoint x="1094" y="597" as="targetPoint" />
            <mxPoint as="offset" />
          </mxGeometry>
        </mxCell>
        <mxCell id="cmVPZQMfzSkM2TJ736y8-10" value="knop ingedrukt" style="edgeStyle=none;html=1;labelBackgroundColor=none;startArrow=none;startFill=0;startSize=5;endArrow=classicThin;endFill=1;endSize=15;jettySize=auto;orthogonalLoop=1;strokeColor=#000000;strokeWidth=1;fontFamily=Verdana;fontSize=12;exitX=0.5;exitY=0;exitDx=0;exitDy=0;curved=1;entryX=0;entryY=0.5;entryDx=0;entryDy=0;" edge="1" parent="1" source="cmVPZQMfzSkM2TJ736y8-5" target="cmVPZQMfzSkM2TJ736y8-3">
          <mxGeometry x="-0.0962" y="36" relative="1" as="geometry">
            <mxPoint x="1308" y="590" as="sourcePoint" />
            <Array as="points">
              <mxPoint x="1070" y="520" />
            </Array>
            <mxPoint x="1225" y="505" as="targetPoint" />
            <mxPoint x="-18" y="14" as="offset" />
          </mxGeometry>
        </mxCell>
        <mxCell id="cmVPZQMfzSkM2TJ736y8-11" value="knop los" style="edgeStyle=none;html=1;labelBackgroundColor=none;startArrow=none;startFill=0;startSize=5;endArrow=classicThin;endFill=1;endSize=15;jettySize=auto;orthogonalLoop=1;strokeColor=#000000;strokeWidth=1;fontFamily=Verdana;fontSize=12;exitX=0;exitY=1;exitDx=0;exitDy=0;curved=1;entryX=0.773;entryY=0.12;entryDx=0;entryDy=0;entryPerimeter=0;" edge="1" parent="1" source="cmVPZQMfzSkM2TJ736y8-3" target="cmVPZQMfzSkM2TJ736y8-5">
          <mxGeometry x="-0.3468" y="25" relative="1" as="geometry">
            <mxPoint x="1068" y="590" as="sourcePoint" />
            <Array as="points">
              <mxPoint x="1080" y="530" />
            </Array>
            <mxPoint x="1150" y="505" as="targetPoint" />
            <mxPoint as="offset" />
          </mxGeometry>
        </mxCell>
        <mxCell id="cmVPZQMfzSkM2TJ736y8-13" value="&lt;span style=&quot;color: rgb(0, 0, 0); font-family: Verdana; font-size: 12px; font-style: normal; font-variant-ligatures: normal; font-variant-caps: normal; font-weight: 400; letter-spacing: normal; orphans: 2; text-align: center; text-indent: 0px; text-transform: none; widows: 2; word-spacing: 0px; -webkit-text-stroke-width: 0px; background-color: rgb(251, 251, 251); text-decoration-thickness: initial; text-decoration-style: initial; text-decoration-color: initial; float: none; display: inline !important;&quot;&gt;BORING = alle stoplichten op rood&lt;br&gt;EXCITING = alle stoplichten op oranje&lt;br&gt;KAMIKAZE = alle stoplichten op groen&lt;br&gt;&lt;/span&gt;" style="text;whiteSpace=wrap;html=1;strokeColor=default;" vertex="1" parent="1">
          <mxGeometry x="1060" y="384" width="246" height="70" as="geometry" />
        </mxCell>
      </root>
    </mxGraphModel>
  </diagram>
</mxfile>
